<?xml version="1.0" encoding="UTF-8"?>
<svg version="1.1" xmlns="http://www.w3.org/2000/svg" width="542" height="516">
<path d="M0 0 C178.86 0 357.72 0 542 0 C542 170.28 542 340.56 542 516 C363.14 516 184.28 516 0 516 C0 345.72 0 175.44 0 0 Z " fill="#FDFEFE" transform="translate(0,0)"/>
<path d="M0 0 C56.76 0 113.52 0 172 0 C172 67.65 172 135.3 172 205 C132.73 205.33 93.46 205.66 53 206 C59.659708 210.843424 66.32152552 215.68269094 73 220.5 C91.39529307 233.78188277 91.39529307 233.78188277 99 239.5 C109.8124892 247.62676151 120.75408938 255.59026246 132.06640625 263.01171875 C134.87198369 264.91323528 137.49680906 266.92452023 140.125 269.0625 C143.04516394 271.43229036 145.97622159 273.76351873 149 276 C148.45823668 281.88011411 147.20483718 286.86528903 145.125 292.375 C144.57509451 293.87957775 144.02690398 295.38478345 143.48046875 296.890625 C143.22056152 297.60412109 142.9606543 298.31761719 142.69287109 299.05273438 C141.59223063 302.14600723 140.68027245 305.2845246 139.76953125 308.4375 C138.79229073 311.69166131 137.70850168 314.9046854 136.625 318.125 C132.08085194 331.64969809 127.98418438 345.30118732 124 359 C123.34 359 122.68 359 122 359 C121.9071875 360.5159375 121.9071875 360.5159375 121.8125 362.0625 C121.12114236 367.81005527 119.05250525 373.17334969 117.15625 378.609375 C116.31473991 381.07704647 115.5643018 383.46064188 115 386 C114.34 386 113.68 386 113 386 C112.67 387.98 112.34 389.96 112 392 C115.67514821 389.88400557 119.06475136 387.53226007 122.44921875 384.98828125 C124 384 124 384 126 384 C126.33 383.01 126.66 382.02 127 381 C128.33333333 380.66666667 129.66666667 380.33333333 131 380 C131.33 379.01 131.66 378.02 132 377 C134.08203125 375.4921875 134.08203125 375.4921875 136.8125 373.875 C141.96242428 370.70581583 146.75486899 367.25190643 151.5625 363.58984375 C155.67752897 360.46788547 159.87085876 357.45536037 164.0625 354.4375 C164.84061035 353.87699951 165.6187207 353.31649902 166.42041016 352.73901367 C167.93152115 351.650713 169.44274741 350.56257234 170.95410156 349.47460938 C176.23777826 345.66632689 181.49949198 341.82756677 186.7578125 337.984375 C188.6056491 336.63581458 190.4597063 335.29573062 192.3203125 333.96484375 C194.08173928 332.67330196 195.80820094 331.33241083 197.4921875 329.94140625 C202.85626412 325.68270644 207.05835435 323.81943333 213.9921875 324.25390625 C219.67503058 325.66354655 223.59872084 329.30091923 228 333 C229.96735352 334.47423097 231.94632079 335.9331116 233.9375 337.375 C235.25041016 338.34566406 235.25041016 338.34566406 236.58984375 339.3359375 C238.67925255 340.7785439 240.69789573 341.94242078 243 343 C243 343.66 243 344.32 243 345 C243.57492187 345.27199219 244.14984375 345.54398437 244.7421875 345.82421875 C249.11014956 348.09888412 253.00236492 351.13833136 257 354 C257.66435059 354.474375 258.32870117 354.94875 259.01318359 355.4375 C266.8082122 361.00910857 274.5725055 366.60215148 282.125 372.5 C285.5957065 375.20970241 289.03737178 377.7336054 292.8125 380 C293.864375 380.66 294.91625 381.32 296 382 C296 382.66 296 383.32 296 384 C297.051875 384.3403125 297.051875 384.3403125 298.125 384.6875 C300.63087025 385.83148425 302.08797332 386.80047192 304.125 388.5625 C306.80604196 391.14217763 306.80604196 391.14217763 310 392 C309.74605469 391.3709375 309.49210937 390.741875 309.23046875 390.09375 C301 369.62546816 301 369.62546816 301 363 C300.34 363 299.68 363 299 363 C298.49564306 361.0636296 297.99666126 359.12585854 297.5 357.1875 C297.2215625 356.10855469 296.943125 355.02960938 296.65625 353.91796875 C296 351 296 351 296 348 C295.34 348 294.68 348 294 348 C290.03741646 334.3040802 290.03741646 334.3040802 289 329.9375 C287.17924626 322.47879827 284.93553734 315.09614145 282 308 C276 293.47619048 276 293.47619048 276 286 C275.34 286 274.68 286 274 286 C273.34 282.7 272.68 279.4 272 276 C274.62488747 274.09099093 277.24982295 272.18204837 279.875 270.2734375 C281.81341716 268.86323901 283.75106641 267.45198352 285.6875 266.0390625 C290.03958065 262.86567036 294.40210093 259.70913103 298.79248047 256.58886719 C307.56119279 250.35523298 316.21191312 243.96530983 324.86621094 237.57421875 C343.26550868 224 343.26550868 224 346 224 C346 223.34 346 222.68 346 222 C347.68066406 220.62719727 347.68066406 220.62719727 350.015625 219.06640625 C350.85480469 218.49986328 351.69398438 217.93332031 352.55859375 217.34960938 C353.44675781 216.75986328 354.33492188 216.17011719 355.25 215.5625 C356.98483886 214.39782606 358.71922946 213.23248409 360.453125 212.06640625 C361.22817383 211.55021729 362.00322266 211.03402832 362.80175781 210.50219727 C364.91009721 209.06143623 366.95711774 207.53216169 369 206 C329.73 205.67 290.46 205.34 250 205 C250 137.35 250 69.7 250 0 C306.76 0 363.52 0 422 0 C422.12099405 78.40414258 422.12099405 78.40414258 422.14648438 111.19140625 C422.15235753 118.69547546 422.15841884 126.19954448 422.16479492 133.70361328 C422.16598179 135.11428009 422.16598179 135.11428009 422.16719264 136.55344522 C422.18022186 151.71373462 422.20386296 166.8739897 422.23145839 182.03425878 C422.25956512 197.60590478 422.27618737 213.17753288 422.28226548 228.74920321 C422.28637102 238.34897789 422.29931327 247.94865559 422.3237494 257.5484004 C422.33967169 264.14143165 422.34438574 270.73441314 422.34050413 277.3274622 C422.33859263 281.12486043 422.34141315 284.92208982 422.35761642 288.71945763 C422.50097631 324.10468232 415.13302184 351.92712565 393 380 C392.30519531 380.89976562 391.61039062 381.79953125 390.89453125 382.7265625 C389.21691957 384.73969651 387.58825312 386.35319838 385.5625 388 C383.45466925 389.75503704 381.5073032 391.4926968 379.5625 393.4375 C373.23602801 399.76397199 366.4031452 404.99602223 359 410 C358.1646875 410.58523438 357.329375 411.17046875 356.46875 411.7734375 C355.6746875 412.32257813 354.880625 412.87171875 354.0625 413.4375 C352.99708984 414.17806641 352.99708984 414.17806641 351.91015625 414.93359375 C350 416 350 416 347 416 C347 416.66 347 417.32 347 418 C343.83387762 420.20669135 340.46992183 421.67574336 336.92895508 423.17700195 C335.03616693 423.98456921 333.15383174 424.81246121 331.2734375 425.6484375 C306.86718628 436.47840081 306.86718628 436.47840081 298 437 C298 437.66 298 438.32 298 439 C296.84242188 439.26554687 295.68484375 439.53109375 294.4921875 439.8046875 C292.95309007 440.16130764 291.41402952 440.51808691 289.875 440.875 C289.11445313 441.04902344 288.35390625 441.22304688 287.5703125 441.40234375 C284.2806828 442.16803342 281.12272377 442.95617008 277.9375 444.09375 C274.34485158 445.20212026 270.85384974 445.45156513 267.125 445.625 C266.43664062 445.66367187 265.74828125 445.70234375 265.0390625 445.7421875 C263.35976754 445.83548166 261.67992233 445.91878238 260 446 C260 446.66 260 447.32 260 448 C226.6674245 451.7686666 194.33588156 451.31595012 161 448 C161 447.34 161 446.68 161 446 C159.84757813 446.02835937 158.69515625 446.05671875 157.5078125 446.0859375 C153.1682561 446.08402664 149.12001034 445.47563791 144.875 444.625 C144.19824219 444.49867188 143.52148438 444.37234375 142.82421875 444.2421875 C138.75215989 443.45455523 134.91242314 442.36275413 131 441 C129.54661093 440.60627253 128.08873798 440.22831606 126.625 439.875 C125.42875 439.58625 124.2325 439.2975 123 439 C123 438.34 123 437.68 123 437 C121.96552734 436.85304688 121.96552734 436.85304688 120.91015625 436.703125 C115.24619838 435.80186421 110.38214613 434.5454807 105.21875 432.0546875 C102.99067982 430.99556963 100.7455335 430.11935928 98.4375 429.25 C91.05820459 426.34724399 84.05552116 422.60194246 77 419 C76.34 418.67 75.68 418.34 75 418 C75 417.34 75 416.68 75 416 C73.95005859 415.87238281 73.95005859 415.87238281 72.87890625 415.7421875 C69.31969098 414.82461504 66.95777527 413.20979178 63.9375 411.125 C62.40416016 410.07699219 62.40416016 410.07699219 60.83984375 409.0078125 C59.90269531 408.34523438 58.96554688 407.68265625 58 407 C57.21753906 406.46117187 56.43507812 405.92234375 55.62890625 405.3671875 C55.09136719 404.91601562 54.55382812 404.46484375 54 404 C54 403.34 54 402.68 54 402 C53.30648437 401.78601563 52.61296875 401.57203125 51.8984375 401.3515625 C48.20926332 399.63127373 45.53883222 397.15072782 42.625 394.375 C42.0484668 393.83230469 41.47193359 393.28960937 40.87792969 392.73046875 C33.01685389 385.25556663 26.09456948 376.98292554 20 368 C20 367.34 20 366.68 20 366 C19.34 366 18.68 366 18 366 C12.19697749 355.86963769 7.43605713 345.75478766 4.67578125 334.375 C4.10492635 332.03600714 4.10492635 332.03600714 3.02713668 330.22061747 C-0.93626437 321.65194519 -0.2858326 310.71896575 -0.24050903 301.47807312 C-0.24221788 300.1806466 -0.24392673 298.88322009 -0.24568737 297.54647762 C-0.25011496 293.98430744 -0.24222127 290.42225976 -0.23213124 286.86010516 C-0.22343206 283.00412889 -0.22642144 279.14815862 -0.22793579 275.29217529 C-0.22898058 268.62436496 -0.22274663 261.956594 -0.21146011 255.28879356 C-0.19515274 245.64847602 -0.18999177 236.00817738 -0.18748413 226.36784754 C-0.18311522 210.72414345 -0.169828 195.08046031 -0.15087891 179.43676758 C-0.13249925 164.2473155 -0.11837592 149.05786915 -0.10986328 133.8684082 C-0.10932729 132.92137872 -0.10879129 131.97434923 -0.10823905 130.99862188 C-0.1040798 123.59138197 -0.1001661 116.18414193 -0.09632993 108.77690184 C-0.07748881 72.51791533 -0.037246 36.2589813 0 0 Z " fill="#0588CB" transform="translate(64,33)"/>
<path d="M0 0 C43.2815625 -0.0309375 43.2815625 -0.0309375 87.4375 -0.0625 C101.1281897 -0.07615601 101.1281897 -0.07615601 115.09545898 -0.09008789 C126.19934082 -0.09460449 126.19934082 -0.09460449 131.38954163 -0.09544373 C135.03200381 -0.09637931 138.67445158 -0.10014233 142.31690979 -0.10557556 C146.95398634 -0.11240148 151.59104172 -0.11449734 156.22812283 -0.11307228 C157.9356171 -0.11337055 159.64311206 -0.11537299 161.35060203 -0.11921513 C163.64578495 -0.12414236 165.94088414 -0.12300722 168.23606873 -0.12025452 C170.1704513 -0.12163721 170.1704513 -0.12163721 172.14391232 -0.12304783 C175 0 175 0 176 1 C176.09782976 3.66807933 176.12994029 6.31026039 176.12025452 8.97877502 C176.12153615 10.24799967 176.12153615 10.24799967 176.12284368 11.54286522 C176.12450108 14.40042399 176.11897288 17.25792508 176.11352539 20.11547852 C176.11324355 22.15500894 176.11340119 24.19453946 176.1139679 26.23406982 C176.11425599 31.78962736 176.10835738 37.34516352 176.10139394 42.90071607 C176.09516234 48.69967368 176.09455676 54.49863172 176.09336853 60.29759216 C176.09025464 71.28713827 176.08204048 82.27667448 176.07201904 93.26621622 C176.05877497 108.11046201 176.05335846 122.95471048 176.04751682 137.79896069 C176.03810062 161.19931454 176.01818209 184.59964751 176 208 C137.06 208.33 98.12 208.66 58 209 C58.33 209.66 58.66 210.32 59 211 C55.125 209.25 55.125 209.25 54 207 C93.6 207 133.2 207 174 207 C174 139.35 174 71.7 174 2 C117.24 2 60.48 2 2 2 C2 105.95 2 209.9 2 317 C1.67 317 1.34 317 1 317 C0.67 212.39 0.34 107.78 0 0 Z " fill="#B1E4F5" transform="translate(62,31)"/>
<path d="M0 0 C56.76 0 113.52 0 172 0 C172 67.65 172 135.3 172 205 C132.73 205.33 93.46 205.66 53 206 C56.63 208.64 60.26 211.28 64 214 C65.98 215.98 65.98 215.98 68 218 C66.68 218 65.36 218 64 218 C64 217.34 64 216.68 64 216 C61.66785852 214.79371992 59.50357861 213.8345262 57 213 C57 212.34 57 211.68 57 211 C56.1028125 210.8453125 56.1028125 210.8453125 55.1875 210.6875 C52.71756736 209.91123545 51.67748765 208.92911079 50 207 C50.33 206.01 50.66 205.02 51 204 C90.27 204 129.54 204 170 204 C170 137.01 170 70.02 170 1 C114.23 1 58.46 1 1 1 C1 102.64 1 204.28 1 309 C0.67 309 0.34 309 0 309 C0 207.03 0 105.06 0 0 Z " fill="#1879A8" transform="translate(64,33)"/>
<path d="M0 0 C56.76 0 113.52 0 172 0 C172 101.97 172 203.94 172 309 C171.67 309 171.34 309 171 309 C171 207.36 171 105.72 171 1 C115.23 1.33 59.46 1.66 2 2 C2 68.66 2 135.32 2 204 C41.27 204 80.54 204 121 204 C120.67 205.32 120.34 206.64 120 208 C119.34 207.67 118.68 207.34 118 207 C118.33 206.67 118.66 206.34 119 206 C79.73 205.67 40.46 205.34 0 205 C0 137.35 0 69.7 0 0 Z " fill="#1B7DAA" transform="translate(314,33)"/>
<path d="M0 0 C0.66 0 1.32 0 2 0 C2 67.65 2 135.3 2 205 C41.6 205 81.2 205 122 205 C116.375 210.625 116.375 210.625 112 212 C112 211.01 112 210.02 112 209 C112.99 209 113.98 209 115 209 C115 208.34 115 207.68 115 207 C77.05 206.67 39.1 206.34 0 206 C0 138.02 0 70.04 0 0 Z " fill="#B5EBF6" transform="translate(312,33)"/>
<path d="M0 0 C0.33 0 0.66 0 1 0 C1.19644006 39.72932486 1.37668727 79.45869324 1.53537826 119.1881876 C1.55414947 123.88424793 1.57305402 128.58030772 1.59204102 133.27636719 C1.59581856 134.21122326 1.59959611 135.14607933 1.60348812 136.10926437 C1.66487981 151.22370678 1.7370597 166.33807922 1.8132638 181.45245337 C1.89128097 196.97434257 1.95761817 212.49625038 2.01323253 228.01823616 C2.04788258 237.58733446 2.09151876 247.1563035 2.14684484 256.72530496 C2.18396777 263.29727834 2.20969127 269.86923641 2.22667392 276.44129241 C2.23678502 280.2265662 2.25170716 284.01164949 2.28024101 287.79683304 C2.49386191 316.92688004 2.49386191 316.92688004 -1 330 C-1.33 330 -1.66 330 -2 330 C-2.02687279 328.18757948 -2.04633715 326.37504767 -2.0625 324.5625 C-2.07410156 323.55316406 -2.08570313 322.54382813 -2.09765625 321.50390625 C-2 319 -2 319 -1 318 C-0.89772003 316.30599812 -0.86600628 314.60770868 -0.8613348 312.91062832 C-0.85586036 311.80091748 -0.85038591 310.69120664 -0.84474558 309.54786819 C-0.84376747 308.31345948 -0.84278936 307.07905076 -0.84178162 305.80723572 C-0.83437465 303.8580996 -0.83437465 303.8580996 -0.82681805 301.869587 C-0.81318325 298.24614908 -0.80580322 294.62272057 -0.79939139 290.99926364 C-0.79141079 287.09807464 -0.77770502 283.19690542 -0.76467896 279.29573059 C-0.74288287 272.53114882 -0.72474989 265.76656509 -0.70907402 259.00196648 C-0.68640384 249.22137844 -0.65825711 239.44081227 -0.62875474 229.66024274 C-0.58104378 213.79360571 -0.53778913 197.92695976 -0.49731445 182.06030273 C-0.45797733 166.64330348 -0.41655541 151.22631217 -0.37231445 135.80932617 C-0.36822804 134.38492337 -0.36822804 134.38492337 -0.36405908 132.93174475 C-0.3503799 128.16808062 -0.33665957 123.40441662 -0.32291877 118.64075267 C-0.20889897 79.09385161 -0.10210182 39.54693352 0 0 Z " fill="#1082BD" transform="translate(484,34)"/>
<path d="M0 0 C0.33 0 0.66 0 1 0 C1 103.95 1 207.9 1 315 C1.66 315 2.32 315 3 315 C3.33 318.63 3.66 322.26 4 326 C0.95327255 321.42990883 -0.25042224 317.9110317 -0.24609566 312.418437 C-0.25007775 311.30076197 -0.25405985 310.18308693 -0.25816262 309.03154296 C-0.25233693 307.80878561 -0.24651125 306.58602826 -0.24050903 305.32621765 C-0.24221788 304.02337588 -0.24392673 302.7205341 -0.24568737 301.37821227 C-0.25015993 297.76376404 -0.24215849 294.1494343 -0.23213124 290.53500116 C-0.22349773 286.63662049 -0.22641683 282.73824655 -0.22793579 278.83985901 C-0.2289847 272.08623864 -0.22270743 265.3326569 -0.21146011 258.57904625 C-0.19520895 248.81445345 -0.1899975 239.04987934 -0.18748413 229.28527448 C-0.18310643 213.44302071 -0.16979527 197.60078752 -0.15087891 181.75854492 C-0.13252206 166.36889753 -0.1183646 150.97925574 -0.10986328 135.58959961 C-0.10933783 134.64104863 -0.10881239 133.69249766 -0.10827102 132.71520271 C-0.10566095 127.95662126 -0.10313353 123.19803977 -0.10064721 118.43945825 C-0.07991236 78.95962442 -0.04468477 39.47981357 0 0 Z " fill="#D0F8FE" transform="translate(62,33)"/>
<path d="M0 0 C39.6 0 79.2 0 120 0 C120 0.33 120 0.66 120 1 C81.06 1.33 42.12 1.66 2 2 C5.63 4.64 9.26 7.28 13 10 C14.32 11.32 15.64 12.64 17 14 C15.68 14 14.36 14 13 14 C13 13.34 13 12.68 13 12 C10.66785852 10.79371992 8.50357861 9.8345262 6 9 C6 8.34 6 7.68 6 7 C5.401875 6.896875 4.80375 6.79375 4.1875 6.6875 C1.71756736 5.91123545 0.67748765 4.92911079 -1 3 C-0.67 2.01 -0.34 1.02 0 0 Z " fill="#3291B9" transform="translate(115,237)"/>
<path d="M0 0 C39.6 0 79.2 0 120 0 C114.375 5.625 114.375 5.625 110 7 C110 6.01 110 5.02 110 4 C110.99 4 111.98 4 113 4 C113 3.34 113 2.68 113 2 C75.71 1.67 38.42 1.34 0 1 C0 0.67 0 0.34 0 0 Z " fill="#B5E9FB" transform="translate(314,238)"/>
<path d="M0 0 C38.61 0 77.22 0 117 0 C117 0.33 117 0.66 117 1 C62.055 1.495 62.055 1.495 6 2 C5.67 3.32 5.34 4.64 5 6 C3.31237149 4.3545622 1.6459651 2.68711423 0 1 C0 0.67 0 0.34 0 0 Z " fill="#ECFCFD" transform="translate(119,239)"/>
<path d="M0 0 C2.31 1.65 4.62 3.3 7 5 C6.45823196 10.88016537 5.20471403 15.86520645 3.125 21.375 C2.5764339 22.87698761 2.02954651 24.37958944 1.484375 25.8828125 C1.22462891 26.59598633 0.96488281 27.30916016 0.69726562 28.04394531 C-0.41523671 31.16487272 -1.35798582 34.32584314 -2.27734375 37.5078125 C-3.21028984 40.72521576 -4.19967861 43.92404569 -5.1875 47.125 C-5.53167969 48.24132812 -5.87585938 49.35765625 -6.23046875 50.5078125 C-6.48441406 51.33023438 -6.73835937 52.15265625 -7 53 C-8.47931594 49.05846693 -7.56772656 45.8381807 -6.6875 41.8125 C-6.42324219 40.56082031 -6.15898437 39.30914062 -5.88671875 38.01953125 C-5.59410156 37.02308594 -5.30148438 36.02664063 -5 35 C-4.01 34.505 -4.01 34.505 -3 34 C-2.53248212 31.64400765 -2.53248212 31.64400765 -2.375 28.9375 C-2.26285156 27.55884766 -2.26285156 27.55884766 -2.1484375 26.15234375 C-2.09945312 25.44207031 -2.05046875 24.73179687 -2 24 C-1.01 23.67 -0.02 23.34 1 23 C1.94324258 18.68803391 2.48041715 14.37934119 3 10 C3.66 10 4.32 10 5 10 C5 8.35 5 6.7 5 5 C2.525 4.01 2.525 4.01 0 3 C0 2.01 0 1.02 0 0 Z " fill="#268BBC" transform="translate(206,304)"/>
<path d="M0 0 C4.455 0.99 4.455 0.99 9 2 C9 2.66 9 3.32 9 4 C10.74410156 4.18755859 10.74410156 4.18755859 12.5234375 4.37890625 C16.66501017 4.89683039 20.59225592 5.84923403 24.625 6.9375 C32.03574113 8.88158911 39.38545632 10.09577294 47 11 C47 11.66 47 12.32 47 13 C40.48807488 13.32863921 35.13091087 13.06610271 29.015625 10.734375 C26.39036387 9.77788451 23.76433597 9.35440205 21 9 C21 8.34 21 7.68 21 7 C20.113125 7.0825 19.22625 7.165 18.3125 7.25 C12.39683382 7.26219725 6.3855548 5.33374041 1 3 C0.67 2.01 0.34 1.02 0 0 Z " fill="#C8EDF8" transform="translate(178,468)"/>
<path d="M0 0 C1.98 0 3.96 0 6 0 C2.81829423 2.79604446 -0.17030714 4.58094755 -4.07104492 6.19897461 C-5.96984925 6.98747948 -7.84880379 7.8111812 -9.7265625 8.6484375 C-32.70795596 18.84354282 -32.70795596 18.84354282 -41 20 C-41 19.34 -41 18.68 -41 18 C-37.04 17.505 -37.04 17.505 -33 17 C-33 16.34 -33 15.68 -33 15 C-29.04 14.01 -25.08 13.02 -21 12 C-21 11.34 -21 10.68 -21 10 C-19.02 10 -17.04 10 -15 10 C-14.67 9.01 -14.34 8.02 -14 7 C-11.71484375 6.05078125 -11.71484375 6.05078125 -8.9375 5.3125 C-8.01839844 5.06113281 -7.09929687 4.80976563 -6.15234375 4.55078125 C-5.44207031 4.36902344 -4.73179687 4.18726563 -4 4 C-4 3.34 -4 2.68 -4 2 C-2.68 2 -1.36 2 0 2 C0 1.34 0 0.68 0 0 Z " fill="#258ABB" transform="translate(405,450)"/>
<path d="M0 0 C-1.38801071 3.35435922 -2.88629 5.11290303 -6 7 C-6.99 7 -7.98 7 -9 7 C-9.33 7.99 -9.66 8.98 -10 10 C-10.99 10 -11.98 10 -13 10 C-13 10.66 -13 11.32 -13 12 C-16.46153846 15 -16.46153846 15 -19 15 C-19 15.66 -19 16.32 -19 17 C-22.53677723 20.53677723 -27.3364724 21.59496284 -32 23 C-29.38797216 20.29146232 -26.73612876 17.94164034 -23.69921875 15.72265625 C-22.48008789 14.82836914 -22.48008789 14.82836914 -21.23632812 13.91601562 C-20.39521484 13.30435547 -19.55410156 12.69269531 -18.6875 12.0625 C-17.85798828 11.45470703 -17.02847656 10.84691406 -16.17382812 10.22070312 C-14.54724382 9.03061343 -12.91823913 7.84382353 -11.28662109 6.66064453 C-9.82067529 5.59601039 -8.35957926 4.52464692 -6.90478516 3.44482422 C-2.21987275 0 -2.21987275 0 0 0 Z " fill="#3393C2" transform="translate(400,264)"/>
<path d="M0 0 C2 1 2 1 3.03515625 3.80078125 C3.54369141 5.53908203 3.54369141 5.53908203 4.0625 7.3125 C4.40410156 8.46363281 4.74570312 9.61476563 5.09765625 10.80078125 C5.7727503 13.1942965 6.4208837 15.58204018 7 18 C3.59919013 17.38998926 1.56988255 16.13131396 -1.125 14 C-3.92897733 11.78944818 -3.92897733 11.78944818 -7 10 C-7 9.34 -7 8.68 -7 8 C-7.99 7.67 -8.98 7.34 -10 7 C-9.34 6.67 -8.68 6.34 -8 6 C-7.195625 6.495 -6.39125 6.99 -5.5625 7.5 C-4.716875 7.995 -3.87125 8.49 -3 9 C-2.01 8.67 -1.02 8.34 0 8 C0 5.36 0 2.72 0 0 Z " fill="#CFF0F9" transform="translate(367,407)"/>
<path d="M0 0 C0.33 0.99 0.66 1.98 1 3 C1.66 3 2.32 3 3 3 C3.19634033 3.61931396 3.39268066 4.23862793 3.5949707 4.87670898 C4.50013646 7.73052133 5.40631243 10.58401196 6.3125 13.4375 C6.62123047 14.41138672 6.92996094 15.38527344 7.24804688 16.38867188 C7.70727539 17.8340332 7.70727539 17.8340332 8.17578125 19.30859375 C8.47822754 20.26620605 8.78067383 21.22381836 9.09228516 22.21044922 C9.67883119 24.01299762 10.2914424 25.80736394 10.93505859 27.59033203 C11.21816895 28.37649902 11.5012793 29.16266602 11.79296875 29.97265625 C12.04973389 30.657229 12.30649902 31.34180176 12.57104492 32.04711914 C13.07645682 34.34808086 12.72914958 35.7847093 12 38 C8.41260439 30.98827222 6.38655649 24.5670075 4.78125 16.86328125 C4.22568911 13.89499663 4.22568911 13.89499663 2 12 C0.60662804 7.89729367 -0.26289955 4.33784263 0 0 Z " fill="#C5EAF6" transform="translate(337,316)"/>
<path d="M0 0 C2.64 0.33 5.28 0.66 8 1 C8 1.66 8 2.32 8 3 C9.0725 2.979375 10.145 2.95875 11.25 2.9375 C14.14790424 2.9857984 16.28612141 3.13155885 19 4 C19 4.66 19 5.32 19 6 C19.74765625 5.97679687 20.4953125 5.95359375 21.265625 5.9296875 C22.25046875 5.91164063 23.2353125 5.89359375 24.25 5.875 C25.22453125 5.85179687 26.1990625 5.82859375 27.203125 5.8046875 C30.0196498 6.00137219 31.60949036 6.55431084 34 8 C34 8.66 34 9.32 34 10 C31.12391751 9.54778577 28.24927513 9.08844901 25.375 8.625 C24.56675781 8.49867188 23.75851563 8.37234375 22.92578125 8.2421875 C18.43565809 7.51208617 14.29461438 6.54805867 10 5 C8.54661093 4.60627253 7.08873798 4.22831606 5.625 3.875 C4.42875 3.58625 3.2325 3.2975 2 3 C2 2.34 2 1.68 2 1 C1.34 0.67 0.68 0.34 0 0 Z " fill="#3192BD" transform="translate(185,469)"/>
<path d="M0 0 C1.29653752 4.34778749 0.78866917 7.55477379 0 12 C-0.66 12.66 -1.32 13.32 -2 14 C-2.60609623 16.02912522 -2.60609623 16.02912522 -3 18.3125 C-4.25126794 24.32821123 -5.95180246 28.27710287 -10 33 C-9.361303 28.40980396 -8.18961089 24.25576922 -6.6875 19.875 C-6.23951921 18.55861557 -5.79160353 17.24220898 -5.34375 15.92578125 C-5.11945313 15.27174316 -4.89515625 14.61770508 -4.6640625 13.94384766 C-3.65466075 10.98912092 -2.67171626 8.02569394 -1.6875 5.0625 C-1.125 3.375 -0.5625 1.6875 0 0 Z " fill="#BBE6F4" transform="translate(206,332)"/>
<path d="M0 0 C-1 1 -1 1 -4.0625 1.0625 C-5.031875 1.041875 -6.00125 1.02125 -7 1 C-7.33 1.99 -7.66 2.98 -8 4 C-9.89685547 4.19916016 -9.89685547 4.19916016 -11.83203125 4.40234375 C-13.49220625 4.58055463 -15.15236148 4.75894963 -16.8125 4.9375 C-18.06256836 5.06801758 -18.06256836 5.06801758 -19.33789062 5.20117188 C-20.14033203 5.28818359 -20.94277344 5.37519531 -21.76953125 5.46484375 C-22.50792236 5.543396 -23.24631348 5.62194824 -24.00708008 5.70288086 C-26.20269378 5.97151996 -26.20269378 5.97151996 -29 7 C-30.56118428 7.06740865 -32.1250252 7.08514456 -33.6875 7.0625 C-34.89986328 7.04896484 -34.89986328 7.04896484 -36.13671875 7.03515625 C-37.05904297 7.01775391 -37.05904297 7.01775391 -38 7 C-38 6.67 -38 6.34 -38 6 C-35.36 6 -32.72 6 -30 6 C-30 5.34 -30 4.68 -30 4 C-28.06447266 3.70996094 -28.06447266 3.70996094 -26.08984375 3.4140625 C-24.37235965 3.15127805 -22.65491373 2.88824396 -20.9375 2.625 C-19.66616211 2.43550781 -19.66616211 2.43550781 -18.36914062 2.2421875 C-14.51183128 1.64646405 -10.77192332 1.00232621 -7.03125 -0.125 C-4.07366527 -0.9787358 -2.80787163 -1.12314865 0 0 Z " fill="#B5E3F2" transform="translate(354,475)"/>
<path d="M0 0 C0.66 0.33 1.32 0.66 2 1 C1.74605469 1.73863281 1.49210938 2.47726562 1.23046875 3.23828125 C-1.0982014 10.10218916 -3.1772068 16.98500799 -5 24 C-5.66 24 -6.32 24 -7 24 C-7.33 26.64 -7.66 29.28 -8 32 C-8.33 32 -8.66 32 -9 32 C-9.44350303 26.01270913 -8.47462464 22.07219705 -6.08203125 16.59375 C-4.67020187 13.20943697 -3.6883189 9.75663413 -2.7109375 6.2265625 C-2.00264374 4.00827985 -1.095683 2.05089382 0 0 Z " fill="#278BBB" transform="translate(193,368)"/>
<path d="M0 0 C0.99 0.33 1.98 0.66 3 1 C3 2.65 3 4.3 3 6 C3.66 6 4.32 6 5 6 C5.02578125 6.556875 5.0515625 7.11375 5.078125 7.6875 C5.39732496 11.9821904 5.93573916 15.28242685 8.0625 19.0625 C10.37423604 23.21027188 10.33527681 26.30612465 10 31 C7.64070936 28.64070936 7.36650065 26.73400281 6.6328125 23.5546875 C5.1054536 17.38868305 3.31393528 11.16165678 0.875 5.29296875 C0 3 0 3 0 0 Z " fill="#298ABC" transform="translate(346,338)"/>
<path d="M0 0 C3.69683583 1.94722513 6.84826713 4.26663875 10 7 C9.01 7.495 9.01 7.495 8 8 C5.5249829 6.88568235 3.32116581 5.41849022 1 4 C1 3.34 1 2.68 1 2 C-1.22990727 2.06034932 -3.4590536 2.1492275 -5.6875 2.25 C-6.92886719 2.29640625 -8.17023438 2.3428125 -9.44921875 2.390625 C-13.45190434 3.07755454 -15.04869748 4.30166627 -18 7 C-20.3125 7.75 -20.3125 7.75 -22 8 C-15.18920784 1.10836758 -9.94069968 -2.06103002 0 0 Z " fill="#459CC4" transform="translate(281,358)"/>
<path d="M0 0 C0.99 0.33 1.98 0.66 3 1 C-0.32149768 4.56170575 -3.9865425 7.31894588 -7.9375 10.125 C-8.54529297 10.56714844 -9.15308594 11.00929688 -9.77929688 11.46484375 C-13.07520368 13.81855497 -16.12553114 15.69135587 -20 17 C-20 16.01 -20 15.02 -20 14 C-18.68 14 -17.36 14 -16 14 C-16 13.01 -16 12.02 -16 11 C-13.35261084 9.5393715 -12.10551666 9 -9 9 C-9 8.01 -9 7.02 -9 6 C-8.01 6 -7.02 6 -6 6 C-6 5.34 -6 4.68 -6 4 C-4.68 4 -3.36 4 -2 4 C-2 3.34 -2 2.68 -2 2 C-1.34 2 -0.68 2 0 2 C0 1.34 0 0.68 0 0 Z " fill="#D5F4FB" transform="translate(237,378)"/>
<path d="M0 0 C-4.27461975 2.2702324 -8.6529354 3.39673163 -13.3125 4.625 C-14.14201172 4.85445313 -14.97152344 5.08390625 -15.82617188 5.3203125 C-20.70571204 6.6143342 -24.95365919 7.25878671 -30 7 C-28.17075273 4.6526792 -27.12591366 4.02947286 -24.1796875 3.33984375 C-22.54386719 3.14068359 -22.54386719 3.14068359 -20.875 2.9375 C-16.85766386 2.40513586 -12.94037396 1.82360855 -9 0.875 C-5.93364618 0.15217626 -3.17005512 -0.20451969 0 0 Z " fill="#298CBB" transform="translate(362,471)"/>
<path d="M0 0 C0.66 0.33 1.32 0.66 2 1 C0.65790834 5.02627499 -1.48701801 5.75169153 -5 8 C-5.515625 8.5775 -6.03125 9.155 -6.5625 9.75 C-8 11 -8 11 -10.6875 11.1875 C-11.450625 11.125625 -12.21375 11.06375 -13 11 C-13 11.99 -13 12.98 -13 14 C-14.32 13.67 -15.64 13.34 -17 13 C-13.28954227 9.99859078 -9.51036352 7.10664526 -5.6875 4.25 C-5.13771484 3.83878906 -4.58792969 3.42757813 -4.02148438 3.00390625 C-2.68154327 2.00186334 -1.34085026 1.00082603 0 0 Z " fill="#2F90C1" transform="translate(231,385)"/>
<path d="M0 0 C0.92039062 0.28810547 0.92039062 0.28810547 1.859375 0.58203125 C-4.12240631 4.9412679 -10.1085656 9.29256679 -16.140625 13.58203125 C-16.470625 12.26203125 -16.800625 10.94203125 -17.140625 9.58203125 C-15.820625 9.58203125 -14.500625 9.58203125 -13.140625 9.58203125 C-13.140625 8.59203125 -13.140625 7.60203125 -13.140625 6.58203125 C-12.150625 6.58203125 -11.160625 6.58203125 -10.140625 6.58203125 C-10.140625 5.92203125 -10.140625 5.26203125 -10.140625 4.58203125 C-8.820625 4.58203125 -7.500625 4.58203125 -6.140625 4.58203125 C-6.140625 3.92203125 -6.140625 3.26203125 -6.140625 2.58203125 C-2.87983363 -0.56230328 -2.87983363 -0.56230328 0 0 Z " fill="#CFF1FA" transform="translate(257.140625,365.41796875)"/>
<path d="M0 0 C0.66 0 1.32 0 2 0 C2.81627446 2.39460588 3.62811645 4.79056526 4.4375 7.1875 C4.66759766 7.86103516 4.89769531 8.53457031 5.13476562 9.22851562 C7.68909526 16.81746598 7.68909526 16.81746598 8 20 C7.34 20.99 6.68 21.98 6 23 C5.34 19.37 4.68 15.74 4 12 C3.34 12 2.68 12 2 12 C0.86235649 7.73383684 0 4.43513689 0 0 Z " fill="#268CBE" transform="translate(356,369)"/>
<path d="M0 0 C2.34601486 2.13274079 3.86264449 4.02537789 5 7 C5.125 9.75 5.125 9.75 5 12 C5.99 12.33 6.98 12.66 8 13 C8.984375 14.7421875 8.984375 14.7421875 9.75 16.875 C10.01296875 17.57367188 10.2759375 18.27234375 10.546875 18.9921875 C11 21 11 21 10 24 C0 8.63333333 0 8.63333333 0 0 Z " fill="#3996C3" transform="translate(71,373)"/>
<path d="M0 0 C-3.75 3 -3.75 3 -6 3 C-6 3.66 -6 4.32 -6 5 C-10.76307437 5.95261487 -15.1666528 6.08333357 -20 6 C-17 4 -17 4 -13 4 C-13 3.34 -13 2.68 -13 2 C-11.21089097 1.47044766 -9.41860852 0.9516063 -7.625 0.4375 C-6.62726563 0.14746094 -5.62953125 -0.14257812 -4.6015625 -0.44140625 C-2 -1 -2 -1 0 0 Z " fill="#D7F4FB" transform="translate(375,468)"/>
<path d="M0 0 C4.99313564 2.91162997 8.89948297 5.89948297 13 10 C15.60122566 11.78132714 18.27705855 13.41218054 21 15 C19.68 15.33 18.36 15.66 17 16 C17 15.34 17 14.68 17 14 C14.34771188 12.92474806 11.71631546 11.90543849 9 11 C9 10.34 9 9.68 9 9 C8.34 9 7.68 9 7 9 C7 8.34 7 7.68 7 7 C6.34 7 5.68 7 5 7 C4.67 6.34 4.34 5.68 4 5 C1.97536745 4.34786708 1.97536745 4.34786708 0 4 C0 2.68 0 1.36 0 0 Z " fill="#D2F4FC" transform="translate(110,430)"/>
<path d="M0 0 C0.33 0 0.66 0 1 0 C1 2.31 1 4.62 1 7 C1.99 7 2.98 7 4 7 C4 6.34 4 5.68 4 5 C5.32 5.33 6.64 5.66 8 6 C6.75627811 6.98712878 5.50472782 7.96439905 4.25 8.9375 C3.55390625 9.48277344 2.8578125 10.02804687 2.140625 10.58984375 C0.03907872 11.97425654 -1.54321799 12.56286987 -4 13 C-3.67 11.02 -3.34 9.04 -3 7 C-2.34 7 -1.68 7 -1 7 C-0.67 4.69 -0.34 2.38 0 0 Z " fill="#C6EFF9" transform="translate(180,412)"/>
<path d="M0 0 C1.22158298 4.01745951 0.39753485 6.04031792 -1 10 C-1.1546875 11.6396875 -1.1546875 11.6396875 -1.3125 13.3125 C-2.21898682 18.17456565 -4.43288548 21.82251843 -7 26 C-7.66 26 -8.32 26 -9 26 C-7.69836181 21.01038695 -5.97289586 16.34813895 -4.01953125 11.578125 C-2.51447255 7.77222943 -1.2428764 3.89811235 0 0 Z " fill="#B7E4F2" transform="translate(483,361)"/>
<path d="M0 0 C2.84015974 4.2602396 4.41357217 8.02857432 5.6875 13 C5.95949219 14.03125 6.23148437 15.0625 6.51171875 16.125 C6.98122716 18.88946552 6.93214283 20.39750728 6 23 C4 21 4 21 3.875 17.375 C3.91625 16.26125 3.9575 15.1475 4 14 C3.34 14 2.68 14 2 14 C1.66179834 12.4176994 1.32964061 10.83410625 1 9.25 C0.814375 8.36828125 0.62875 7.4865625 0.4375 6.578125 C0 4 0 4 0 0 Z " fill="#D4F4FB" transform="translate(350,354)"/>
<path d="M0 0 C2.97 0.495 2.97 0.495 6 1 C6 1.99 6 2.98 6 4 C6.763125 4.103125 7.52625 4.20625 8.3125 4.3125 C11.18416484 5.04711194 12.23042094 5.6716065 14 8 C14 8.66 14 9.32 14 10 C14.639375 10.28875 15.27875 10.5775 15.9375 10.875 C18 12 18 12 19 14 C14.91762503 12.19018137 11.42492557 9.58822712 7.8125 7 C7.17119141 6.54882812 6.52988281 6.09765625 5.86914062 5.6328125 C1.12211361 2.24422722 1.12211361 2.24422722 0 0 Z " fill="#BFE9F5" transform="translate(130,248)"/>
<path d="M0 0 C0.66 0.33 1.32 0.66 2 1 C-1.16589254 6.40839975 -5.17514834 10.04174791 -10 14 C-10.99 13.34 -11.98 12.68 -13 12 C-12.22914063 11.38511719 -11.45828125 10.77023437 -10.6640625 10.13671875 C-9.66117187 9.32847656 -8.65828125 8.52023437 -7.625 7.6875 C-6.62726563 6.88699219 -5.62953125 6.08648437 -4.6015625 5.26171875 C-1.86519247 3.08378314 -1.86519247 3.08378314 0 0 Z " fill="#C5EBF6" transform="translate(446,423)"/>
<path d="M0 0 C2 1 2 1 3.765625 2.796875 C6.25870578 5.25508751 8.90222541 7.21587529 11.75 9.25 C12.73484375 9.95640625 13.7196875 10.6628125 14.734375 11.390625 C15.48203125 11.92171875 16.2296875 12.4528125 17 13 C15.68 13.33 14.36 13.66 13 14 C13 13.34 13 12.68 13 12 C10.66785852 10.79371992 8.50357861 9.8345262 6 9 C6 8.34 6 7.68 6 7 C5.401875 6.896875 4.80375 6.79375 4.1875 6.6875 C1.71756736 5.91123545 0.67748765 4.92911079 -1 3 C-0.67 2.01 -0.34 1.02 0 0 Z " fill="#238ABD" transform="translate(115,237)"/>
<path d="M0 0 C0.66 0 1.32 0 2 0 C2.42589023 5.53657294 0.905247 9.89665983 -1 15 C-1.66 15 -2.32 15 -3 15 C-3.33 16.65 -3.66 18.3 -4 20 C-4.97812873 16.94371936 -5.00835683 15.14722553 -4.00390625 12.109375 C-3.77509766 11.40039062 -3.54628906 10.69140625 -3.31054688 9.9609375 C-3.06369141 9.23132813 -2.81683594 8.50171875 -2.5625 7.75 C-2.19801758 6.63238281 -2.19801758 6.63238281 -1.82617188 5.4921875 C-1.22667019 3.65841765 -0.61455513 1.82877996 0 0 Z " fill="#B6E3F3" transform="translate(186,392)"/>
<path d="M0 0 C0.33 0.99 0.66 1.98 1 3 C-3.52084209 7.49335977 -6.54972485 9.73672346 -13 10 C-9.28249221 5.79759989 -4.68339021 3.00217321 0 0 Z " fill="#298EC0" transform="translate(257,367)"/>
<path d="M0 0 C1.32 0 2.64 0 4 0 C4 0.66 4 1.32 4 2 C5.051875 2.28875 6.10375 2.5775 7.1875 2.875 C10.22818711 3.77225193 13.08712344 4.76423419 16 6 C16 6.66 16 7.32 16 8 C17.32 8.33 18.64 8.66 20 9 C19.67 9.66 19.34 10.32 19 11 C15.9168649 9.80100302 12.93720508 8.52299523 10 7 C10 6.34 10 5.68 10 5 C9.278125 4.9175 8.55625 4.835 7.8125 4.75 C4.44686746 3.85249799 2.58387184 2.2885722 0 0 Z " fill="#3593C0" transform="translate(129,444)"/>
<path d="M0 0 C0.99 0 1.98 0 3 0 C3.20496094 0.92683594 3.40992188 1.85367187 3.62109375 2.80859375 C3.89050781 4.00613281 4.15992188 5.20367187 4.4375 6.4375 C4.83775391 8.22994141 4.83775391 8.22994141 5.24609375 10.05859375 C5.70066748 12.8704686 5.70066748 12.8704686 7 14 C7.04063832 15.66617115 7.042721 17.33388095 7 19 C4.23776722 16.23776722 4.42143709 13.79293383 4 10 C3.34 10 2.68 10 2 10 C1.34 6.7 0.68 3.4 0 0 Z " fill="#3D97C0" transform="translate(336,309)"/>
<path d="M0 0 C2.79828356 0.38597015 3.8205884 0.80136573 5.75 2.9375 C7 5 7 5 7 7 C7.99 7 8.98 7 10 7 C11.06775224 8.96466413 12.06553465 10.96855359 13 13 C12.67 13.66 12.34 14.32 12 15 C10.55726615 13.44233138 9.12103292 11.87864043 7.6875 10.3125 C6.88699219 9.44238281 6.08648437 8.57226562 5.26171875 7.67578125 C3.18451663 5.21829688 1.56168424 2.80496684 0 0 Z " fill="#2B8EBC" transform="translate(89,407)"/>
<path d="M0 0 C0.69480469 0.25652344 1.38960938 0.51304687 2.10546875 0.77734375 C-0.47776249 3.76561125 -3.44988362 5.27163922 -6.95703125 7.02734375 C-8.02050781 7.56875 -9.08398438 8.11015625 -10.1796875 8.66796875 C-11.07558594 9.0340625 -11.97148437 9.40015625 -12.89453125 9.77734375 C-13.55453125 9.44734375 -14.21453125 9.11734375 -14.89453125 8.77734375 C-13.01194962 7.23704969 -11.11639309 5.72129219 -9.20703125 4.21484375 C-8.67658203 3.77720703 -8.14613281 3.33957031 -7.59960938 2.88867188 C-4.88805007 0.77598456 -3.49666514 -0.26897424 0 0 Z " fill="#3293C2" transform="translate(368.89453125,287.22265625)"/>
<path d="M0 0 C0.99 0.33 1.98 0.66 3 1 C-2.05216018 5.71993196 -6.82601539 9.84732701 -13 13 C-13 12.01 -13 11.02 -13 10 C-12.01 10 -11.02 10 -10 10 C-10 9.34 -10 8.68 -10 8 C-9.01 8 -8.02 8 -7 8 C-7 7.34 -7 6.68 -7 6 C-6.360625 5.896875 -5.72125 5.79375 -5.0625 5.6875 C-4.0415625 5.3471875 -4.0415625 5.3471875 -3 5 C-2.67 4.01 -2.34 3.02 -2 2 C-1.34 2 -0.68 2 0 2 C0 1.34 0 0.68 0 0 Z " fill="#2A8BBA" transform="translate(439,427)"/>
<path d="M0 0 C1.21065165 3.63195496 0.62784815 5.06531629 -0.4375 8.6875 C-0.72496094 9.68136719 -1.01242188 10.67523438 -1.30859375 11.69921875 C-1.53675781 12.45847656 -1.76492187 13.21773438 -2 14 C-2.66 14 -3.32 14 -4 14 C-4.33 16.31 -4.66 18.62 -5 21 C-6.07310858 17.72814447 -5.89263102 15.57052408 -5.0625 12.25 C-4.77052734 11.05117188 -4.77052734 11.05117188 -4.47265625 9.828125 C-4.31667969 9.22484375 -4.16070312 8.6215625 -4 8 C-3.34 8 -2.68 8 -2 8 C-1.855625 6.865625 -1.71125 5.73125 -1.5625 4.5625 C-1 1 -1 1 0 0 Z " fill="#1D85BB" transform="translate(181,405)"/>
<path d="M0 0 C0.33 0 0.66 0 1 0 C0.51172287 7.47834967 -0.33405548 14.68925318 -2 22 C-2.33 22 -2.66 22 -3 22 C-3.02687279 20.18757948 -3.04633715 18.37504767 -3.0625 16.5625 C-3.07410156 15.55316406 -3.08570313 14.54382813 -3.09765625 13.50390625 C-3 11 -3 11 -2 10 C-1.6068352 8.32115762 -1.25914548 6.63149955 -0.9375 4.9375 C-0.76089844 4.01839844 -0.58429688 3.09929687 -0.40234375 2.15234375 C-0.26957031 1.44207031 -0.13679688 0.73179687 0 0 Z " fill="#358FBA" transform="translate(485,342)"/>
<path d="M0 0 C0.99 0.33 1.98 0.66 3 1 C1.04594482 2.50587739 -0.91281284 4.00478644 -2.875 5.5 C-3.43058594 5.92925781 -3.98617188 6.35851562 -4.55859375 6.80078125 C-8.7734375 10 -8.7734375 10 -11 10 C-11 9.01 -11 8.02 -11 7 C-10.01 7 -9.02 7 -8 7 C-8 6.34 -8 5.68 -8 5 C-7.01 5 -6.02 5 -5 5 C-5 4.34 -5 3.68 -5 3 C-3.35 2.67 -1.7 2.34 0 2 C0 1.34 0 0.68 0 0 Z " fill="#D3F3FB" transform="translate(352,295)"/>
<path d="M0 0 C1.90389849 2.85584773 2.69462177 4.9311762 3.625 8.1875 C3.88539063 9.08855469 4.14578125 9.98960937 4.4140625 10.91796875 C4.60742188 11.60503906 4.80078125 12.29210937 5 13 C1.21369298 12.24432948 -0.4041044 10.87402727 -3 8 C-1.68 8 -0.36 8 1 8 C0.67 5.36 0.34 2.72 0 0 Z " fill="#A3DEF0" transform="translate(369,412)"/>
<path d="M0 0 C1 3 1 3 -0.65234375 6.57421875 C-1.40387723 7.95092168 -2.1660567 9.32185409 -2.9375 10.6875 C-3.51661133 11.7403418 -3.51661133 11.7403418 -4.10742188 12.81445312 C-5.06261773 14.54795672 -6.03015386 16.27465009 -7 18 C-7.33 18 -7.66 18 -8 18 C-8 16.35 -8 14.7 -8 13 C-7.34 13 -6.68 13 -6 13 C-6 12.01 -6 11.02 -6 10 C-5.34 10 -4.68 10 -4 10 C-3.67 8.02 -3.34 6.04 -3 4 C-2.34 4 -1.68 4 -1 4 C-0.67 2.68 -0.34 1.36 0 0 Z " fill="#2689BB" transform="translate(475,380)"/>
<path d="M0 0 C0.66 0.33 1.32 0.66 2 1 C0.6875 3 0.6875 3 -1 5 C-1.99 5 -2.98 5 -4 5 C-4.33 5.99 -4.66 6.98 -5 8 C-5.99 8.66 -6.98 9.32 -8 10 C-9.32 9.67 -10.64 9.34 -12 9 C-8.04 6.03 -4.08 3.06 0 0 Z " fill="#BFEAF6" transform="translate(431,436)"/>
<path d="M0 0 C1.77682248 0.90500296 3.54626591 1.8245025 5.3125 2.75 C6.29863281 3.26046875 7.28476563 3.7709375 8.30078125 4.296875 C10.95450276 5.97129263 12.33102197 7.37976145 14 10 C12.68 10 11.36 10 10 10 C10 9.34 10 8.68 10 8 C9.01 7.67 8.02 7.34 7 7 C7 6.34 7 5.68 7 5 C5.68 5 4.36 5 3 5 C1.25 3.625 1.25 3.625 0 2 C0 1.34 0 0.68 0 0 Z " fill="#3291BC" transform="translate(187,291)"/>
<path d="M0 0 C4.08718695 -0.24042276 7.17679443 0.57741188 11 2 C11 3.32 11 4.64 11 6 C6.14922412 4.88059018 3.222107 3.8665284 0 0 Z " fill="#3090C1" transform="translate(154,457)"/>
<path d="M0 0 C0.99 0.33 1.98 0.66 3 1 C1.40012144 2.31772362 -0.20505966 3.62901137 -1.8125 4.9375 C-2.70582031 5.66839844 -3.59914062 6.39929688 -4.51953125 7.15234375 C-7 9 -7 9 -10 10 C-9.67 9.01 -9.34 8.02 -9 7 C-8.34 7 -7.68 7 -7 7 C-7 6.34 -7 5.68 -7 5 C-5.75 3.375 -5.75 3.375 -4 2 C-2.68 2 -1.36 2 0 2 C0 1.34 0 0.68 0 0 Z " fill="#CFF3FB" transform="translate(214,395)"/>
<path d="M0 0 C0.33 0 0.66 0 1 0 C1.40909091 8.18181818 1.40909091 8.18181818 -2 12 C-2.70514846 14.14733927 -2.70514846 14.14733927 -3 16 C-3.66 16 -4.32 16 -5 16 C-3.71291613 10.45563871 -2.08135307 5.29798964 0 0 Z " fill="#BCE8F6" transform="translate(195,367)"/>
<path d="M0 0 C2.475 0.495 2.475 0.495 5 1 C5.33 1.99 5.66 2.98 6 4 C7.65 4.33 9.3 4.66 11 5 C11.33 6.32 11.66 7.64 12 9 C7.18966896 6.45335415 3.67557852 4.00972202 0 0 Z " fill="#C6EDF7" transform="translate(200,299)"/>
<path d="M0 0 C0.66 0 1.32 0 2 0 C0.90301833 5.69139902 -0.54053077 10.74567937 -3 16 C-4.31225809 12.06322574 -3.3393954 10.2205738 -2.0625 6.3125 C-1.68222656 5.13300781 -1.30195313 3.95351563 -0.91015625 2.73828125 C-0.60980469 1.83464844 -0.30945313 0.93101562 0 0 Z " fill="#278BB9" transform="translate(480,364)"/>
<path d="M0 0 C0.99 0.33 1.98 0.66 3 1 C3 2.65 3 4.3 3 6 C3.66 6 4.32 6 5 6 C5 8.97 5 11.94 5 15 C3.25050228 12.37575342 2.34610019 10.44272784 1.375 7.5 C0.98441406 6.33984375 0.98441406 6.33984375 0.5859375 5.15625 C0 3 0 3 0 0 Z " fill="#1A85BA" transform="translate(346,338)"/>
<path d="M0 0 C3.63 0 7.26 0 11 0 C9 4 9 4 6.375 5.25 C5.59125 5.4975 4.8075 5.745 4 6 C4 5.01 4 4.02 4 3 C4.99 3 5.98 3 7 3 C7 2.34 7 1.68 7 1 C4.69 1 2.38 1 0 1 C0 0.67 0 0.34 0 0 Z " fill="#D7F4FB" transform="translate(420,239)"/>
<path d="M0 0 C4.455 0.99 4.455 0.99 9 2 C9 2.66 9 3.32 9 4 C10.32 4.33 11.64 4.66 13 5 C11.56208484 4.85831863 10.1246763 4.71148957 8.6875 4.5625 C7.88699219 4.48128906 7.08648437 4.40007812 6.26171875 4.31640625 C4 4 4 4 1 3 C0.67 2.01 0.34 1.02 0 0 Z " fill="#B8E5F4" transform="translate(178,468)"/>
<path d="M0 0 C0.33 0 0.66 0 1 0 C1 2.31 1 4.62 1 7 C1.66 7 2.32 7 3 7 C3.33 10.63 3.66 14.26 4 18 C-0.05842151 11.91236773 -0.2502075 7.15871449 0 0 Z " fill="#CAEFF9" transform="translate(62,341)"/>
<path d="M0 0 C0.99 0.33 1.98 0.66 3 1 C-0.19668988 3.6486859 -3.39486597 5.93992341 -7 8 C-7 6.68 -7 5.36 -7 4 C-5.35 3.67 -3.7 3.34 -2 3 C-2 2.34 -2 1.68 -2 1 C-1.34 0.67 -0.68 0.34 0 0 Z " fill="#D1F2FA" transform="translate(374,279)"/>
<path d="M0 0 C5.08938811 1.59043379 8.87456643 4.7446951 13 8 C11.09765625 8.578125 11.09765625 8.578125 9 9 C7.4375 7.75 7.4375 7.75 6 6 C3.87790925 3.70106836 3.08375495 3.02791832 0 2 C0 1.34 0 0.68 0 0 Z " fill="#2289BA" transform="translate(167,277)"/>
<path d="M0 0 C-1.36983503 3.16115776 -1.9890638 3.9927092 -5 6 C-5 5.34 -5 4.68 -5 4 C-6.98 4.33 -8.96 4.66 -11 5 C-7.72709962 2.33319229 -4.35126896 0 0 0 Z " fill="#C4E9F5" transform="translate(399,457)"/>
<path d="M0 0 C1.65 0 3.3 0 5 0 C5 0.66 5 1.32 5 2 C3.3203125 3.2890625 3.3203125 3.2890625 1.125 4.625 C0.04605469 5.29402344 0.04605469 5.29402344 -1.0546875 5.9765625 C-3 7 -3 7 -5 7 C-5 6.34 -5 5.68 -5 5 C-3.68 4.67 -2.36 4.34 -1 4 C-0.67 2.68 -0.34 1.36 0 0 Z " fill="#238ABC" transform="translate(420,440)"/>
<path d="M0 0 C0.33 0.66 0.66 1.32 1 2 C-1.54631035 4.97069541 -4.42230149 6.4775751 -8 8 C-8.66 7.67 -9.32 7.34 -10 7 C-6.7 4.69 -3.4 2.38 0 0 Z " fill="#3291BE" transform="translate(243,377)"/>
<path d="M0 0 C0.66 0 1.32 0 2 0 C3.47075246 4.41225737 4.36884358 7.48281619 3 12 C0.60926555 8.17482487 0.44033448 4.40334476 0 0 Z " fill="#3C98C2" transform="translate(356,369)"/>
<path d="M0 0 C0.99 0.33 1.98 0.66 3 1 C1.625 2.5 1.625 2.5 0 4 C-0.66 4 -1.32 4 -2 4 C-1.67 6.31 -1.34 8.62 -1 11 C-1.66 10.67 -2.32 10.34 -3 10 C-3.40729228 7.67843403 -3.74438677 5.3431213 -4 3 C-3.01 3 -2.02 3 -1 3 C-0.67 2.01 -0.34 1.02 0 0 Z " fill="#DAF6FC" transform="translate(338,305)"/>
<path d="M0 0 C4.08963819 2.28538605 7.46362104 4.95706926 11 8 C10.01 8.33 9.02 8.66 8 9 C8 8.34 8 7.68 8 7 C5.525 6.01 5.525 6.01 3 5 C3 4.34 3 3.68 3 3 C2.01 2.67 1.02 2.34 0 2 C0 1.34 0 0.68 0 0 Z " fill="#298ABC" transform="translate(156,268)"/>
<path d="M0 0 C0.33 0.66 0.66 1.32 1 2 C0.06553465 4.03144641 -0.93224776 6.03533587 -2 8 C-2.99 8 -3.98 8 -5 8 C-5 8.66 -5 9.32 -5 10 C-5.66 9.67 -6.32 9.34 -7 9 C-4.69 6.03 -2.38 3.06 0 0 Z " fill="#CBF0F9" transform="translate(460,408)"/>
<path d="M0 0 C0.33 0 0.66 0 1 0 C1.4375 2.1875 1.4375 2.1875 1 5 C-1.13995327 6.98441782 -3.50175965 8.5023304 -6 10 C-4.34784004 6.42032008 -2.26875648 3.22017048 0 0 Z " fill="#BCE6F6" transform="translate(467,398)"/>
<path d="M0 0 C2.34601486 2.13274079 3.86264449 4.02537789 5 7 C5.125 9.75 5.125 9.75 5 12 C2.32522069 9.32522069 1.3535886 6.507025 0 3 C0 2.01 0 1.02 0 0 Z " fill="#268BB9" transform="translate(71,373)"/>
<path d="M0 0 C-1.9626228 2.04795423 -3.4277307 2.94976638 -6.26953125 3.19921875 C-8.51954383 3.18858877 -10.75385562 3.12958525 -13 3 C-3.70474138 -1.85237069 -3.70474138 -1.85237069 0 0 Z " fill="#A1D8EC" transform="translate(375,468)"/>
<path d="M0 0 C0.99 0 1.98 0 3 0 C3 0.66 3 1.32 3 2 C4.98 2.66 6.96 3.32 9 4 C9 4.99 9 5.98 9 7 C8.67 6.34 8.34 5.68 8 5 C6.33678518 4.64984951 4.66965451 4.31802943 3 4 C2.01 3.34 1.02 2.68 0 2 C0 1.34 0 0.68 0 0 Z " fill="#C5EDF8" transform="translate(136,449)"/>
<path d="M0 0 C1.79068573 2.6860286 2.66055791 4.6626589 3.625 7.6875 C3.88539062 8.49574219 4.14578125 9.30398438 4.4140625 10.13671875 C4.60742188 10.75160156 4.80078125 11.36648438 5 12 C3.046875 11.3203125 3.046875 11.3203125 1 10 C0.390625 7.6171875 0.390625 7.6171875 0.25 4.875 C0.19328125 3.96492188 0.1365625 3.05484375 0.078125 2.1171875 C0.05234375 1.41851562 0.0265625 0.71984375 0 0 Z " fill="#B0E3F1" transform="translate(70,373)"/>
<path d="M0 0 C4 6 4 6 4 11 C3.01 10.67 2.02 10.34 1 10 C0.67 6.7 0.34 3.4 0 0 Z " fill="#AFDFF1" transform="translate(350,354)"/>
<path d="M0 0 C0.99 0.495 0.99 0.495 2 1 C4.38056989 8.64288227 4.38056989 8.64288227 3 13 C0.89172945 9.83759418 0.66182535 8.49342531 0.375 4.8125 C0.30023438 3.91144531 0.22546875 3.01039063 0.1484375 2.08203125 C0.09945313 1.39496094 0.05046875 0.70789063 0 0 Z " fill="#9BD4EB" transform="translate(346,341)"/>
<path d="M0 0 C1.32 0.33 2.64 0.66 4 1 C1.31158141 3.25245881 -0.64641875 4.88213958 -4 6 C-3.67 4.68 -3.34 3.36 -3 2 C-2.01 2 -1.02 2 0 2 C0 1.34 0 0.68 0 0 Z " fill="#D6F6FC" transform="translate(399,260)"/>
<path d="M0 0 C0.99 0.33 1.98 0.66 3 1 C0.75 3.5 0.75 3.5 -2 6 C-3.32 6 -4.64 6 -6 6 C-6 5.34 -6 4.68 -6 4 C-4.02 3.34 -2.04 2.68 0 2 C0 1.34 0 0.68 0 0 Z " fill="#2D8FBB" transform="translate(447,420)"/>
<path d="M0 0 C3.0916909 2.52956528 3.90931332 5.22454612 5 9 C4.01 9 3.02 9 2 9 C0.50178941 5.62902617 0 3.79557881 0 0 Z " fill="#CBF1FA" transform="translate(77,390)"/>
<path d="M0 0 C1.81495662 0.44850658 3.62693134 0.90909571 5.4375 1.375 C6.44683594 1.63023437 7.45617187 1.88546875 8.49609375 2.1484375 C11 3 11 3 12 5 C8.37 4.34 4.74 3.68 1 3 C0.67 2.01 0.34 1.02 0 0 Z " fill="#B7E5F3" transform="translate(159,461)"/>
<path d="M0 0 C1.33855056 0.78281305 2.67073644 1.57651877 4 2.375 C5.11375 3.03628906 5.11375 3.03628906 6.25 3.7109375 C6.8275 4.13632812 7.405 4.56171875 8 5 C8 5.66 8 6.32 8 7 C7.01 7 6.02 7 5 7 C4.67 6.34 4.34 5.68 4 5 C1.97536745 4.34786708 1.97536745 4.34786708 0 4 C0 2.68 0 1.36 0 0 Z " fill="#C4EAF6" transform="translate(110,430)"/>
<path d="M0 0 C2.475 0.495 2.475 0.495 5 1 C5 1.66 5 2.32 5 3 C5.99 3.33 6.98 3.66 8 4 C7.67 4.99 7.34 5.98 7 7 C5.83040013 6.02433888 4.66438823 5.044375 3.5 4.0625 C2.8503125 3.51722656 2.200625 2.97195313 1.53125 2.41015625 C1.0259375 1.94480469 0.520625 1.47945313 0 1 C0 0.67 0 0.34 0 0 Z " fill="#3494C0" transform="translate(104,424)"/>
<path d="M0 0 C3.91402949 1.26941497 5.79072873 2.51167694 8 6 C7.01 6 6.02 6 5 6 C5 5.34 5 4.68 5 4 C3.68 4 2.36 4 1 4 C0.67 2.68 0.34 1.36 0 0 Z " fill="#1C84B9" transform="translate(364,420)"/>
<path d="M0 0 C1.2065625 0.0309375 1.2065625 0.0309375 2.4375 0.0625 C0.07457344 2.58838702 -1.22712511 3.95070837 -4.5625 5.0625 C-3.43829114 0.08386076 -3.43829114 0.08386076 0 0 Z " fill="#D0F0F9" transform="translate(263.5625,359.9375)"/>
<path d="M0 0 C1.65 0 3.3 0 5 0 C6.125 3.75 6.125 3.75 5 6 C3.31237149 4.3545622 1.6459651 2.68711423 0 1 C0 0.67 0 0.34 0 0 Z " fill="#D7F5FB" transform="translate(119,239)"/>
<path d="M0 0 C0.99 0.33 1.98 0.66 3 1 C1.35 2.32 -0.3 3.64 -2 5 C-2.66 4.34 -3.32 3.68 -4 3 C-2.1875 1.4375 -2.1875 1.4375 0 0 Z " fill="#D8F4FB" transform="translate(437,432)"/>
<path d="M0 0 C0.99 0.33 1.98 0.66 3 1 C0.525 4.465 0.525 4.465 -2 8 C-2.33 7.01 -2.66 6.02 -3 5 C-2.67 4.34 -2.34 3.68 -2 3 C-1.34 3 -0.68 3 0 3 C0 2.01 0 1.02 0 0 Z " fill="#2A8CBC" transform="translate(459,405)"/>
<path d="M0 0 C0.33 0 0.66 0 1 0 C1 2.64 1 5.28 1 8 C0.01 8.33 -0.98 8.66 -2 9 C-1.51421457 5.87709365 -1.0013988 3.00419641 0 0 Z " fill="#D8F7FB" transform="translate(190,383)"/>
<path d="M0 0 C0.99 0 1.98 0 3 0 C3 2.97 3 5.94 3 9 C0.23776722 6.23776722 0.42143709 3.79293383 0 0 Z " fill="#2689BC" transform="translate(343,329)"/>
<path d="M0 0 C4.455 1.98 4.455 1.98 9 4 C5 5 5 5 2.25 3.6875 C1.5075 3.130625 0.765 2.57375 0 2 C0 1.34 0 0.68 0 0 Z " fill="#CBF2FB" transform="translate(149,456)"/>
<path d="M0 0 C0.66 0 1.32 0 2 0 C2 0.99 2 1.98 2 3 C2.66 3.33 3.32 3.66 4 4 C3.34 4.66 2.68 5.32 2 6 C1.01 6 0.02 6 -1 6 C-0.67 4.02 -0.34 2.04 0 0 Z " fill="#85CCE9" transform="translate(177,419)"/>
<path d="M0 0 C0.99 0.33 1.98 0.66 3 1 C1.69593116 3.01920337 0.36176581 5.01924973 -1 7 C-1.33 7 -1.66 7 -2 7 C-2 5.35 -2 3.7 -2 2 C-1.34 2 -0.68 2 0 2 C0 1.34 0 0.68 0 0 Z " fill="#2088BA" transform="translate(464,398)"/>
<path d="M0 0 C1.32 0.33 2.64 0.66 4 1 C1.6875 3.0625 1.6875 3.0625 -1 5 C-1.99 4.67 -2.98 4.34 -4 4 C-3.01 3.67 -2.02 3.34 -1 3 C-0.67 2.01 -0.34 1.02 0 0 Z " fill="#D5F5FB" transform="translate(413,250)"/>
<path d="M0 0 C1.32 0.33 2.64 0.66 4 1 C-0.75 5 -0.75 5 -3 5 C-3 4.01 -3 3.02 -3 2 C-2.01 2 -1.02 2 0 2 C0 1.34 0 0.68 0 0 Z " fill="#D0F2FA" transform="translate(420,245)"/>
</svg>
